<svg width="108" height="29" viewBox="0 0 108 29" fill="none" xmlns="http://www.w3.org/2000/svg">
<path d="M59.1174 29C58.388 29 57.7127 28.8871 57.0914 28.6614C56.4701 28.449 55.9433 28.1104 55.5111 27.6457C55.0789 27.181 54.7885 26.5901 54.6399 25.8732H56.4228C56.5308 26.2715 56.7334 26.5901 57.0306 26.8291C57.3277 27.0681 57.6721 27.2341 58.0638 27.327C58.4555 27.4333 58.8405 27.4864 59.2187 27.4864C59.948 27.4864 60.5355 27.3403 60.9813 27.0482C61.4405 26.7694 61.7714 26.3777 61.974 25.8732C62.1766 25.3819 62.2779 24.8176 62.2779 24.1803V22.7264C62.0483 23.1247 61.7444 23.45 61.3662 23.7023C60.988 23.9546 60.5761 24.1405 60.1303 24.26C59.6846 24.3662 59.2254 24.4193 58.7527 24.4193C57.6721 24.4193 56.7875 24.1869 56.0986 23.7222C55.4098 23.2442 54.8965 22.6069 54.5589 21.8103C54.2347 21.0004 54.0726 20.0909 54.0726 19.0818C54.0726 18.0727 54.2415 17.1632 54.5791 16.3533C54.9168 15.5301 55.4368 14.8795 56.1391 14.4015C56.8415 13.9235 57.7397 13.6845 58.8337 13.6845C59.455 13.6845 60.0831 13.7974 60.7179 14.0231C61.3527 14.2488 61.8727 14.6139 62.2779 15.1185L62.3589 13.804H64V24.2201C64 25.2027 63.8177 26.0524 63.453 26.7694C63.1018 27.4864 62.5615 28.0374 61.8322 28.4224C61.1163 28.8075 60.2114 29 59.1174 29ZM58.9958 22.9256C59.7116 22.9256 60.3127 22.7463 60.7989 22.3878C61.2852 22.0294 61.6566 21.5514 61.9132 20.9539C62.1699 20.3564 62.2982 19.7058 62.2982 19.0021C62.2982 18.2718 62.1699 17.6213 61.9132 17.0503C61.6701 16.4794 61.3054 16.028 60.8192 15.696C60.333 15.3641 59.7184 15.1981 58.9755 15.1981C58.2057 15.1981 57.5844 15.3707 57.1116 15.7159C56.6524 16.0612 56.3147 16.5259 56.0986 17.1101C55.896 17.6943 55.7947 18.3449 55.7947 19.0619C55.7947 19.8054 55.9028 20.4693 56.1189 21.0535C56.335 21.6377 56.6794 22.0957 57.1521 22.4277C57.6249 22.7596 58.2394 22.9256 58.9958 22.9256Z" fill="white"/>
<path d="M42.7101 24.2998V13.804H44.3714L44.4524 15.3973C44.6955 15.0122 45.0062 14.6936 45.3844 14.4413C45.7626 14.189 46.1745 14.0032 46.6202 13.8837C47.0795 13.7509 47.5252 13.6845 47.9574 13.6845C48.9974 13.6845 49.8078 13.8969 50.3886 14.3218C50.9829 14.7467 51.4016 15.3243 51.6447 16.0545C51.9013 16.7715 52.0296 17.5881 52.0296 18.5042V24.2998H50.3075V18.9623C50.3075 18.471 50.2738 17.9997 50.2062 17.5482C50.1522 17.0968 50.0306 16.6918 49.8416 16.3333C49.666 15.9749 49.4093 15.696 49.0717 15.4969C48.734 15.2844 48.2815 15.1782 47.7143 15.1782C47.0119 15.1782 46.4109 15.3707 45.9111 15.7558C45.4249 16.1408 45.0535 16.6586 44.7968 17.3092C44.5537 17.9598 44.4322 18.6901 44.4322 19.5V24.2998H42.7101Z" fill="white"/>
<path d="M38.4812 24.2998V13.804H40.2033V24.2998H38.4812ZM39.3321 12.2505C38.9809 12.2505 38.6973 12.1443 38.4812 11.9319C38.2786 11.7194 38.1773 11.4472 38.1773 11.1153C38.1773 10.7834 38.2854 10.5178 38.5015 10.3187C38.7176 10.1062 38.9944 10 39.3321 10C39.6428 10 39.9129 10.1062 40.1425 10.3187C40.3856 10.5311 40.5072 10.7966 40.5072 11.1153C40.5072 11.4472 40.3924 11.7194 40.1628 11.9319C39.9332 12.1443 39.6563 12.2505 39.3321 12.2505Z" fill="white"/>
<path d="M30.7311 24.4193C29.664 24.4193 28.7861 24.1869 28.0973 23.7222C27.4084 23.2442 26.8952 22.6069 26.5575 21.8103C26.2199 21.0004 26.051 20.0908 26.051 19.0818C26.051 18.0727 26.2199 17.1632 26.5575 16.3533C26.8952 15.5301 27.4152 14.8795 28.1175 14.4015C28.8199 13.9235 29.7181 13.6845 30.8121 13.6845C31.2308 13.6845 31.6495 13.7376 32.0682 13.8438C32.5004 13.9368 32.9056 14.0895 33.2838 14.3019C33.662 14.5011 33.9862 14.7732 34.2563 15.1185V10.2191H35.9784V24.2998H34.3373L34.2563 22.7264C34.0132 23.1247 33.7025 23.45 33.3243 23.7023C32.9597 23.9413 32.5545 24.1205 32.1087 24.24C31.663 24.3595 31.2038 24.4193 30.7311 24.4193ZM30.9742 22.9256C31.69 22.9256 32.2911 22.7463 32.7773 22.3878C33.2636 22.0294 33.635 21.5514 33.8916 20.9539C34.1482 20.3564 34.2766 19.7058 34.2766 19.0021C34.2766 18.2718 34.1482 17.6212 33.8916 17.0503C33.6485 16.4794 33.2838 16.028 32.7976 15.696C32.3113 15.3641 31.6968 15.1981 30.9539 15.1981C30.184 15.1981 29.5627 15.3707 29.09 15.7159C28.6308 16.0612 28.2931 16.5325 28.077 17.13C27.8744 17.7142 27.7731 18.3714 27.7731 19.1017C27.7731 19.6328 27.8271 20.1307 27.9352 20.5954C28.0568 21.0468 28.2391 21.4518 28.4822 21.8103C28.7388 22.1555 29.0697 22.4277 29.4749 22.6268C29.8801 22.826 30.3799 22.9256 30.9742 22.9256Z" fill="white"/>
<path d="M18.8451 24.4193C18.3588 24.4193 17.8861 24.3595 17.4269 24.24C16.9811 24.1073 16.5759 23.9147 16.2113 23.6625C15.8601 23.3969 15.5765 23.0716 15.3603 22.6866C15.1577 22.2883 15.0564 21.8302 15.0564 21.3124C15.0564 20.7149 15.1645 20.2103 15.3806 19.7987C15.6102 19.3871 15.9141 19.0619 16.2923 18.8229C16.6705 18.5839 17.1095 18.4113 17.6092 18.305C18.1089 18.1988 18.629 18.1457 19.1692 18.1457H22.3095C22.3095 17.5482 22.2217 17.0304 22.0461 16.5923C21.884 16.1541 21.6139 15.8155 21.2357 15.5765C20.8575 15.3243 20.3578 15.1981 19.7365 15.1981C19.3583 15.1981 19.0071 15.238 18.683 15.3176C18.3588 15.3973 18.0819 15.5234 17.8523 15.696C17.6227 15.8686 17.4539 16.101 17.3458 16.3931H15.5022C15.5967 15.9151 15.7791 15.5101 16.0492 15.1782C16.3328 14.833 16.6705 14.5542 17.0622 14.3417C17.4674 14.116 17.8996 13.95 18.3588 13.8438C18.818 13.7376 19.2773 13.6845 19.7365 13.6845C21.2762 13.6845 22.3703 14.1293 23.0186 15.0189C23.6669 15.9085 23.9911 17.1101 23.9911 18.6237V24.2998H22.5526L22.4513 22.9654C22.1542 23.3637 21.7963 23.6691 21.3775 23.8816C20.9588 24.094 20.5266 24.2334 20.0809 24.2998C19.6487 24.3795 19.2367 24.4193 18.8451 24.4193ZM19.0071 22.9256C19.6825 22.9256 20.2633 22.8194 20.7495 22.6069C21.2492 22.3812 21.6342 22.0559 21.9043 21.631C22.1744 21.2062 22.3095 20.6883 22.3095 20.0776V19.5598H20.4253C19.9796 19.5598 19.5406 19.5664 19.1084 19.5797C18.6762 19.5929 18.2845 19.6461 17.9334 19.739C17.5822 19.8319 17.2985 19.9913 17.0824 20.217C16.8798 20.4427 16.7785 20.768 16.7785 21.1929C16.7785 21.5912 16.8798 21.9165 17.0824 22.1688C17.2985 22.421 17.5754 22.6136 17.9131 22.7463C18.2643 22.8658 18.629 22.9256 19.0071 22.9256Z" fill="white"/>
<path d="M8.06572 24.2998V13.804H9.72703L9.80807 15.4371C10.0782 15.0255 10.3889 14.6936 10.74 14.4413C11.1047 14.189 11.5032 14.0032 11.9354 13.8837C12.3811 13.7509 12.8606 13.6845 13.3738 13.6845C13.4684 13.6845 13.5562 13.6845 13.6372 13.6845C13.7317 13.6845 13.8263 13.6845 13.9208 13.6845V15.2778H13.2928C12.4554 15.2778 11.7733 15.457 11.2465 15.8155C10.7333 16.1607 10.3618 16.6321 10.1322 17.2296C9.90262 17.8138 9.78781 18.4644 9.78781 19.1813V24.2998H8.06572Z" fill="white"/>
<path d="M5.1055 24.2998C4.2951 24.2998 3.64003 24.1803 3.14029 23.9413C2.65405 23.7023 2.29613 23.3305 2.06651 22.826C1.85041 22.3215 1.74235 21.6841 1.74235 20.9141V15.2977H0V13.804H1.74235V10.6772H3.46445V13.804H6.3211V15.2977H3.46445V20.7348C3.46445 21.4518 3.59276 21.9829 3.84939 22.3281C4.11952 22.66 4.65978 22.826 5.47018 22.826H6.26032V24.2998H5.1055Z" fill="white"/>
<path d="M103.71 24C103.222 24 102.727 23.9538 102.225 23.8615C101.737 23.7692 101.276 23.6109 100.843 23.3866C100.422 23.1624 100.07 22.859 99.7853 22.4765C99.5006 22.094 99.3176 21.6191 99.2363 21.0519H100.985C101.121 21.4081 101.337 21.6983 101.636 21.9225C101.947 22.1336 102.293 22.2852 102.673 22.3776C103.066 22.4699 103.439 22.5161 103.791 22.5161C104.008 22.5161 104.259 22.5029 104.543 22.4765C104.828 22.4501 105.099 22.3908 105.357 22.2984C105.628 22.1929 105.845 22.0412 106.007 21.8434C106.184 21.6455 106.272 21.3685 106.272 21.0124C106.272 20.7486 106.211 20.5309 106.089 20.3594C105.967 20.188 105.797 20.0495 105.58 19.9439C105.363 19.8252 105.099 19.7395 104.787 19.6867C104.15 19.5548 103.466 19.4295 102.734 19.3108C102.015 19.1921 101.378 18.9678 100.822 18.6381C100.633 18.5194 100.456 18.3875 100.294 18.2424C100.145 18.0841 100.016 17.9126 99.9073 17.7279C99.7989 17.5301 99.7108 17.319 99.643 17.0948C99.5888 16.8574 99.5617 16.6002 99.5617 16.3232C99.5617 15.8087 99.6633 15.3669 99.8666 14.9975C100.084 14.615 100.382 14.305 100.761 14.0676C101.141 13.817 101.575 13.6323 102.063 13.5136C102.564 13.3949 103.1 13.3355 103.669 13.3355C104.374 13.3355 105.004 13.4477 105.56 13.6719C106.129 13.8829 106.597 14.1995 106.963 14.6216C107.329 15.0305 107.546 15.5383 107.614 16.1451H106.007C105.912 15.7626 105.655 15.4526 105.235 15.2152C104.814 14.9646 104.279 14.8392 103.628 14.8392C103.411 14.8392 103.167 14.859 102.896 14.8986C102.625 14.925 102.368 14.9909 102.124 15.0965C101.88 15.1888 101.676 15.3339 101.514 15.5317C101.351 15.7164 101.27 15.967 101.27 16.2836C101.27 16.5738 101.344 16.8178 101.493 17.0157C101.656 17.2135 101.88 17.3718 102.164 17.4905C102.449 17.6092 102.774 17.7082 103.14 17.7873C103.615 17.8796 104.137 17.9786 104.706 18.0841C105.275 18.1764 105.723 18.2754 106.048 18.3809C106.482 18.5128 106.841 18.6974 107.126 18.9349C107.424 19.1723 107.641 19.4559 107.776 19.7857C107.925 20.1154 108 20.4979 108 20.9332C108 21.5532 107.871 22.061 107.614 22.4567C107.37 22.8524 107.038 23.1624 106.617 23.3866C106.197 23.6109 105.729 23.7692 105.214 23.8615C104.713 23.9538 104.211 24 103.71 24Z" fill="#377DE6"/>
<path d="M95.5608 13.9885V0H97.2892V13.9885H95.5608Z" fill="#377DE6"/>
<path d="M91.3168 20.5837V6.59522H93.0451V20.5837H91.3168Z" fill="#377DE6"/>
<path d="M87.0719 23.8813V13.4542H88.8002V23.8813H87.0719ZM87.9259 11.911C87.5735 11.911 87.2888 11.8054 87.0719 11.5944C86.8686 11.3833 86.7669 11.1129 86.7669 10.7832C86.7669 10.4534 86.8753 10.1896 87.0922 9.99174C87.3091 9.7807 87.587 9.67517 87.9259 9.67517C88.2377 9.67517 88.5088 9.7807 88.7392 9.99174C88.9832 10.2028 89.1052 10.4666 89.1052 10.7832C89.1052 11.1129 88.99 11.3833 88.7596 11.5944C88.5291 11.8054 88.2512 11.911 87.9259 11.911Z" fill="#377DE6"/>
<path d="M76.7114 23.8813V9.89283H78.4398V17.9456H80.3104L83.5231 13.4542H85.4751L81.8964 18.4204L85.7801 23.8813H83.7468L80.5138 19.4097H78.4398V23.8813H76.7114Z" fill="#377DE6"/>
<path d="M70.4733 24C69.9853 24 69.4906 23.9538 68.989 23.8615C68.501 23.7692 68.0401 23.6109 67.6063 23.3866C67.1861 23.1624 66.8337 22.859 66.549 22.4765C66.2643 22.094 66.0813 21.6191 66 21.0519H67.7487C67.8842 21.4081 68.1011 21.6983 68.3993 21.9225C68.7111 22.1336 69.0568 22.2852 69.4363 22.3776C69.8295 22.4699 70.2022 22.5161 70.5547 22.5161C70.7716 22.5161 71.0223 22.5029 71.307 22.4765C71.5917 22.4501 71.8628 22.3908 72.1203 22.2984C72.3915 22.1929 72.6083 22.0412 72.771 21.8434C72.9472 21.6455 73.0353 21.3685 73.0353 21.0124C73.0353 20.7486 72.9743 20.5309 72.8523 20.3594C72.7303 20.188 72.5609 20.0495 72.344 19.9439C72.1271 19.8252 71.8628 19.7395 71.551 19.6867C70.9139 19.5548 70.2293 19.4295 69.4973 19.3108C68.7789 19.1921 68.1418 18.9678 67.586 18.6381C67.3962 18.5194 67.22 18.3875 67.0573 18.2424C66.9082 18.0841 66.7794 17.9126 66.671 17.7279C66.5626 17.5301 66.4744 17.319 66.4067 17.0948C66.3524 16.8574 66.3253 16.6002 66.3253 16.3232C66.3253 15.8087 66.427 15.3669 66.6303 14.9975C66.8472 14.615 67.1454 14.305 67.525 14.0676C67.9046 13.817 68.3383 13.6323 68.8263 13.5136C69.3279 13.3949 69.8633 13.3355 70.4327 13.3355C71.1376 13.3355 71.7679 13.4477 72.3237 13.6719C72.893 13.8829 73.3607 14.1995 73.7267 14.6216C74.0927 15.0305 74.3096 15.5383 74.3773 16.1451H72.771C72.6761 15.7626 72.4186 15.4526 71.9983 15.2152C71.5781 14.9646 71.0427 14.8392 70.392 14.8392C70.1751 14.8392 69.9311 14.859 69.66 14.8986C69.3889 14.925 69.1313 14.9909 68.8873 15.0965C68.6433 15.1888 68.44 15.3339 68.2773 15.5317C68.1147 15.7164 68.0333 15.967 68.0333 16.2836C68.0333 16.5738 68.1079 16.8178 68.257 17.0157C68.4197 17.2135 68.6433 17.3718 68.928 17.4905C69.2127 17.6092 69.538 17.7082 69.904 17.7873C70.3785 17.8796 70.9003 17.9786 71.4697 18.0841C72.039 18.1764 72.4863 18.2754 72.8117 18.3809C73.2455 18.5128 73.6047 18.6974 73.8893 18.9349C74.1876 19.1723 74.4045 19.4559 74.54 19.7857C74.6891 20.1154 74.7637 20.4979 74.7637 20.9332C74.7637 21.5532 74.6349 22.061 74.3773 22.4567C74.1333 22.8524 73.8012 23.1624 73.381 23.3866C72.9608 23.6109 72.4931 23.7692 71.978 23.8615C71.4765 23.9538 70.9749 24 70.4733 24Z" fill="#377DE6"/>
</svg>
